<svg xmlns="http://www.w3.org/2000/svg" width="17.296" height="17.276" viewBox="0 0 17.296 17.276">
  <path id="filter-svgrepo-com" d="M6.488,13.514l3.606,3.606a.541.541,0,0,0,.378.157.492.492,0,0,0,.211-.043.541.541,0,0,0,.33-.5V7.071L17.142.924A.544.544,0,0,0,16.758,0H.541A.544.544,0,0,0,.158.924L6.309,7.071v6.081A.541.541,0,0,0,6.488,13.514ZM1.844,1.081H15.456L10.05,6.487a.541.541,0,0,0-.162.384v8.584L7.369,12.93V6.849a.541.541,0,0,0-.162-.384Z" transform="translate(-0.002)" fill="#aeadad"/>
</svg>
