<svg xmlns="http://www.w3.org/2000/svg" width="24.5" height="24.5" viewBox="0 0 24.5 24.5">
  <g id="grid-4-svgrepo-com" transform="translate(-2.25 -2.25)">
    <path id="Path_10538" data-name="Path 10538" d="M7.792,3C4.127,3,3,4.127,3,7.792s1.127,4.792,4.792,4.792,4.792-1.127,4.792-4.792S11.456,3,7.792,3Z" fill="none" stroke="#000" stroke-linecap="round" stroke-linejoin="round" stroke-width="1.5"/>
    <path id="Path_10539" data-name="Path 10539" d="M7.792,13.5C4.127,13.5,3,14.628,3,18.292s1.127,4.792,4.792,4.792,4.792-1.128,4.792-4.792S11.456,13.5,7.792,13.5Z" transform="translate(0 2.917)" fill="none" stroke="#000" stroke-linecap="round" stroke-linejoin="round" stroke-width="1.5"/>
    <path id="Path_10540" data-name="Path 10540" d="M18.292,13.5c-3.664,0-4.792,1.128-4.792,4.792s1.128,4.792,4.792,4.792,4.792-1.128,4.792-4.792S21.956,13.5,18.292,13.5Z" transform="translate(2.917 2.917)" fill="none" stroke="#000" stroke-linecap="round" stroke-linejoin="round" stroke-width="1.5"/>
    <path id="Path_10541" data-name="Path 10541" d="M18.292,3C14.628,3,13.5,4.127,13.5,7.792s1.128,4.792,4.792,4.792,4.792-1.127,4.792-4.792S21.956,3,18.292,3Z" transform="translate(2.917)" fill="none" stroke="#000" stroke-linecap="round" stroke-linejoin="round" stroke-width="1.5"/>
  </g>
</svg>
